<?xml version="1.0" encoding="UTF-8"?>
<svg width="32px" height="32px" viewBox="0 0 32 32" version="1.1" xmlns="http://www.w3.org/2000/svg" xmlns:xlink="http://www.w3.org/1999/xlink">
    <title>openai-avatar-light</title>
    <g id="openai-avatar-light" stroke="none" stroke-width="1" fill="none" fill-rule="evenodd">
        <rect fill="#FFFFFF" x="0" y="0" width="32" height="32"></rect>
        <path d="M28.2122971,13.0801636 C28.8822971,11.0701636 28.6522971,8.87016356 27.5822971,7.04016356 C25.9722971,4.24016356 22.7322971,2.80016356 19.5722971,3.47016356 C18.1622971,1.89016356 16.1422971,0.990163564 14.0222971,1.00008111 C10.7922971,1.00008111 7.9222971,3.08016356 6.9222971,6.15016356 C4.8422971,6.58016356 3.0522971,7.88016356 2.0022971,9.72016356 C0.382297102,12.5201636 0.752297102,16.0401636 2.9222971,18.4401636 C2.2522971,20.4501636 2.4822971,22.6501636 3.5522971,24.4701636 C5.1622971,27.2801636 8.4022971,28.7201636 11.5722971,28.0501636 C12.9722971,29.6301636 14.9922971,30.5401636 17.1122971,30.5302451 C20.3422971,30.5302451 23.2122971,28.4501636 24.2122971,25.3801636 C26.2922971,24.9501636 28.0822971,23.6501636 29.1222971,21.8101636 C30.7522971,19.0101636 30.3822971,15.4901636 28.2122971,13.0901636 L28.2122971,13.0801636 Z M25.9122971,8.01016356 C26.5522971,9.13016356 26.7922971,10.4401636 26.5722971,11.7101636 C26.5322971,11.6801636 26.4522971,11.6401636 26.4022971,11.6101636 L20.5222971,8.21016356 C20.2222971,8.04016356 19.8522971,8.04016356 19.5522971,8.21016356 L12.6622971,12.1901636 L12.6622971,9.27016356 L18.3522971,5.98016356 C21.0022971,4.45016356 24.3822971,5.36016356 25.9122971,8.01016356 L25.9122971,8.01016356 Z M12.6622971,14.0801636 L15.5622971,12.4001636 L18.4622971,14.0801636 L18.4622971,17.4301636 L15.5622971,19.1101636 L12.6622971,17.4301636 L12.6622971,14.0801636 Z M14.0122971,2.93016356 C15.3122971,2.93016356 16.5622971,3.38016356 17.5622971,4.21016356 C17.5222971,4.23016356 17.4422971,4.28016356 17.3822971,4.31016356 L11.5022971,7.70016356 C11.2022971,7.87016356 11.0222971,8.19016356 11.0222971,8.54016356 L11.0222971,16.5001636 L8.4922971,15.0401636 L8.4922971,8.46016356 C8.4922971,5.40016356 10.9622971,2.93016356 14.0222971,2.92016356 L14.0122971,2.93016356 Z M3.6822971,10.6901636 L3.6822971,10.6901636 C4.3322971,9.57016356 5.3422971,8.71016356 6.5622971,8.26016356 L6.5622971,15.2501636 C6.5622971,15.6001636 6.7422971,15.9101636 7.0422971,16.0901636 L13.9222971,20.0601636 L11.3822971,21.5301636 L5.7022971,18.2501636 C3.0622971,16.7201636 2.1522971,13.3401636 3.6822971,10.6901636 L3.6822971,10.6901636 Z M5.2322971,23.5201636 L5.2322971,23.5201636 C4.5822971,22.4101636 4.3522971,21.0901636 4.5722971,19.8201636 C4.6122971,19.8501636 4.6922971,19.8901636 4.7422971,19.9201636 L10.6222971,23.3201636 C10.9222971,23.4901636 11.2922971,23.4901636 11.5922971,23.3201636 L18.4722971,19.3401636 L18.4722971,22.2601636 L12.7822971,25.5401636 C10.1322971,27.0601636 6.7522971,26.1601636 5.2222971,23.5201636 L5.2322971,23.5201636 Z M17.1222971,28.6001636 C15.8322971,28.6001636 14.5722971,28.1501636 13.5822971,27.3201636 C13.6222971,27.3001636 13.7122971,27.2501636 13.7622971,27.2201636 L19.6422971,23.8301636 C19.9422971,23.6601636 20.1322971,23.3401636 20.1222971,22.9901636 L20.1222971,15.0401636 L22.6522971,16.5001636 L22.6522971,23.0701636 C22.6522971,26.1301636 20.1722971,28.6101636 17.1222971,28.6101636 L17.1222971,28.6001636 Z M27.4622971,20.8401636 C26.8122971,21.9601636 25.7922971,22.8201636 24.5822971,23.2601636 L24.5822971,16.2701636 C24.5822971,15.9201636 24.4022971,15.6001636 24.1022971,15.4301636 L24.1022971,15.4301636 L17.2122971,11.4501636 L19.7422971,9.99016356 L25.4322971,13.2701636 C28.0822971,14.8001636 28.9822971,18.1801636 27.4522971,20.8301636 L27.4622971,20.8401636 Z" id="Shape" fill="#000000" fill-rule="nonzero"></path>
    </g>
</svg>